<svg xmlns="http://www.w3.org/2000/svg" xmlns:xlink="http://www.w3.org/1999/xlink" width="102.63021087646484" height="102.63021850585938" viewBox="0 0 102.63021087646484 102.63021850585938" fill="none"><path   fill-rule="evenodd"  fill="#855CD6"  d="M42.6667 5.33333C42.6667 4.98315 42.6325 4.63632 42.5642 4.29285C42.4959 3.94939 42.3947 3.61589 42.2607 3.29237C42.1267 2.96882 41.9624 2.66146 41.7678 2.37029C41.5733 2.07913 41.3522 1.80972 41.1046 1.56208C40.857 1.31447 40.5875 1.09339 40.2964 0.898827C40.0052 0.704267 39.6979 0.539984 39.3743 0.405973C39.0508 0.271965 38.7173 0.170791 38.3738 0.102454C38.0303 0.0341517 37.6835 0 37.3333 0C36.9831 0 36.6363 0.0341517 36.2929 0.102454C35.9494 0.170791 35.6159 0.271965 35.2924 0.405973C34.9688 0.539984 34.6614 0.704267 34.3703 0.898827C34.0791 1.09339 33.8097 1.31447 33.5621 1.56208C33.3145 1.80972 33.0934 2.07913 32.8988 2.37029C32.7043 2.66146 32.54 2.96882 32.406 3.29237C32.2719 3.61589 32.1708 3.94939 32.1025 4.29285C32.0341 4.63632 32 4.98315 32 5.33333L32 16C32 16.3502 32.0341 16.697 32.1025 17.0405C32.1708 17.3839 32.2719 17.7174 32.406 18.041C32.54 18.3645 32.7043 18.6719 32.8988 18.963C33.0934 19.2542 33.3145 19.5236 33.5621 19.7713C33.8097 20.0189 34.0791 20.2399 34.3703 20.4345C34.6614 20.6291 34.9688 20.7933 35.2924 20.9274C35.6159 21.0614 35.9494 21.1625 36.2929 21.2308C36.6363 21.2991 36.9831 21.3333 37.3333 21.3333C37.6835 21.3333 38.0303 21.2991 38.3738 21.2308C38.7173 21.1625 39.0508 21.0614 39.3743 20.9274C39.6979 20.7933 40.0052 20.6291 40.2964 20.4345C40.5875 20.2399 40.857 20.0189 41.1046 19.7713C41.3522 19.5236 41.5733 19.2542 41.7678 18.963C41.9624 18.6719 42.1267 18.3645 42.2607 18.041C42.3947 17.7174 42.4959 17.3839 42.5642 17.0405C42.6325 16.697 42.6667 16.3502 42.6667 16L42.6667 5.33333ZM18.4747 10.9333C18.3519 10.8063 18.2233 10.6857 18.0886 10.5714C17.954 10.4572 17.8139 10.3499 17.6686 10.2495C17.5233 10.1492 17.3733 10.0563 17.2188 9.97088C17.0642 9.88539 16.9058 9.80784 16.7435 9.73813C16.5812 9.66843 16.4159 9.60693 16.2475 9.55365C16.0791 9.50037 15.9085 9.45552 15.7357 9.4192C15.5629 9.38288 15.3887 9.3552 15.2131 9.33616C15.0375 9.31712 14.8614 9.30688 14.6848 9.30533C14.5082 9.30379 14.3319 9.31104 14.1561 9.32699C13.9802 9.34293 13.8055 9.36763 13.6321 9.40096C13.4587 9.43429 13.2873 9.47611 13.118 9.52645C12.9487 9.5768 12.7824 9.63541 12.6189 9.70229C12.4555 9.76917 12.2957 9.844 12.1397 9.92672C11.9837 10.0094 11.8321 10.0997 11.6851 10.1975C11.538 10.2953 11.3962 10.4002 11.2595 10.5121C11.1229 10.6239 10.9921 10.7423 10.8673 10.8673C10.7423 10.9921 10.6239 11.1229 10.5121 11.2595C10.4002 11.3962 10.2953 11.538 10.1975 11.6851C10.0997 11.8321 10.0094 11.9837 9.92672 12.1397C9.844 12.2957 9.76917 12.4555 9.70229 12.6189C9.63541 12.7824 9.5768 12.9487 9.52645 13.118C9.47611 13.2873 9.43429 13.4587 9.40096 13.6321C9.36763 13.8055 9.34293 13.9802 9.32699 14.1561C9.31104 14.3319 9.30379 14.5082 9.30533 14.6848C9.30688 14.8614 9.31712 15.0375 9.33616 15.2131C9.3552 15.3887 9.38288 15.5629 9.4192 15.7357C9.45552 15.9085 9.50037 16.0791 9.55365 16.2475C9.60693 16.4159 9.66843 16.5812 9.73813 16.7435C9.80784 16.9058 9.88539 17.0642 9.97088 17.2188C10.0563 17.3733 10.1492 17.5233 10.2495 17.6686C10.3499 17.8139 10.4572 17.954 10.5714 18.0886C10.6857 18.2233 10.8063 18.3519 10.9333 18.4747L18.4747 26.0267C18.7226 26.2746 18.9923 26.4959 19.2839 26.6908C19.5754 26.8856 19.8831 27.0501 20.2071 27.1843C20.531 27.3185 20.865 27.4197 21.2089 27.4881C21.5527 27.5565 21.9 27.5907 22.2507 27.5907C22.6013 27.5907 22.9486 27.5565 23.2925 27.4882C23.6364 27.4197 23.9703 27.3185 24.2942 27.1843C24.6182 27.0501 24.9259 26.8856 25.2174 26.6908C25.509 26.4959 25.7787 26.2746 26.0267 26.0267C26.2746 25.7787 26.4959 25.509 26.6908 25.2174C26.8856 24.9259 27.0501 24.6182 27.1843 24.2942C27.3185 23.9703 27.4197 23.6364 27.4881 23.2925C27.5565 22.9486 27.5907 22.6013 27.5907 22.2507C27.5907 21.9 27.5565 21.5527 27.4882 21.2089C27.4197 20.865 27.3185 20.531 27.1843 20.2071C27.0501 19.8831 26.8856 19.5754 26.6908 19.2839C26.4959 18.9923 26.2746 18.7226 26.0267 18.4747L18.4747 10.9333ZM41.5467 33.12C36.336 31.3813 31.3813 36.336 33.12 41.5467L51.9573 98.0693C53.8613 103.787 61.7707 104.245 64.32 98.784L75.2853 75.2853L98.784 64.3253C104.245 61.776 103.787 53.8613 98.0693 51.9573L41.5467 33.12ZM58.9013 85.1733L45.7653 45.7653L85.1787 58.9013L69.456 66.2347C68.7467 66.5659 68.1152 67.008 67.5616 67.5616C67.008 68.1152 66.5659 68.7467 66.2347 69.456L58.9013 85.1733ZM63.7333 10.9333C63.9808 11.181 64.2016 11.4503 64.3963 11.7415C64.5909 12.0326 64.7552 12.3399 64.8891 12.6634C65.0229 12.9869 65.1243 13.3203 65.1925 13.6637C65.2608 14.0071 65.2949 14.3539 65.2949 14.704C65.2949 15.0541 65.2608 15.4009 65.1925 15.7443C65.1243 16.0877 65.0229 16.4212 64.8891 16.7446C64.7552 17.0681 64.5909 17.3754 64.3963 17.6666C64.2016 17.9577 63.9808 18.227 63.7333 18.4747L56.192 26.0267C55.944 26.2747 55.6747 26.4963 55.3835 26.6912C55.0923 26.8861 54.7845 27.0508 54.4608 27.1852C54.1371 27.3195 53.8032 27.421 53.4592 27.4895C53.1154 27.558 52.7682 27.5924 52.4176 27.5925C52.067 27.5927 51.7198 27.5586 51.376 27.4903C51.0322 27.422 50.6983 27.3209 50.3744 27.1867C50.0505 27.0526 49.7429 26.8882 49.4517 26.6935C49.1602 26.4988 48.8905 26.2774 48.6427 26.0296C48.3945 25.7817 48.1732 25.512 47.9787 25.2205C47.7838 24.929 47.6194 24.6213 47.4853 24.2974C47.3513 23.9735 47.2501 23.6396 47.1819 23.2958C47.1136 22.9519 47.0795 22.6047 47.0795 22.2542C47.0795 21.9036 47.1138 21.5564 47.1824 21.2126C47.251 20.8689 47.3525 20.535 47.4869 20.2113C47.6213 19.8875 47.786 19.5799 47.9808 19.2885C48.1756 18.9972 48.3972 18.7277 48.6453 18.48L56.192 10.9387C56.4395 10.6911 56.7088 10.4701 57 10.2756C57.2912 10.0811 57.5984 9.91691 57.9221 9.78299C58.2459 9.64901 58.5792 9.54789 58.9221 9.47957C59.2656 9.41125 59.6123 9.37712 59.9627 9.37712C60.3131 9.37712 60.6597 9.41125 61.0032 9.47957C61.3461 9.54789 61.6795 9.64901 62.0032 9.78299C62.3269 9.91691 62.6341 10.0811 62.9253 10.2756C63.2165 10.4701 63.4859 10.6911 63.7333 10.9387M0 37.3333C0 36.9831 0.0341517 36.6363 0.102454 36.2929C0.170791 35.9494 0.271965 35.6159 0.405973 35.2924C0.539984 34.9688 0.704267 34.6614 0.898827 34.3703C1.09339 34.0791 1.31447 33.8097 1.56208 33.5621C1.80972 33.3145 2.07913 33.0934 2.37029 32.8988C2.66146 32.7043 2.96882 32.54 3.29237 32.406C3.61589 32.2719 3.94939 32.1708 4.29285 32.1025C4.63632 32.0341 4.98315 32 5.33333 32L16 32C16.3502 32 16.697 32.0341 17.0405 32.1025C17.3839 32.1708 17.7174 32.2719 18.041 32.406C18.3645 32.54 18.6719 32.7043 18.963 32.8988C19.2542 33.0934 19.5236 33.3145 19.7713 33.5621C20.0189 33.8097 20.2399 34.0791 20.4345 34.3703C20.6291 34.6614 20.7933 34.9688 20.9274 35.2924C21.0614 35.6159 21.1625 35.9494 21.2308 36.2929C21.2991 36.6363 21.3333 36.9831 21.3333 37.3333C21.3333 37.6835 21.2991 38.0303 21.2308 38.3738C21.1625 38.7173 21.0614 39.0508 20.9274 39.3743C20.7933 39.6979 20.6291 40.0052 20.4345 40.2964C20.2399 40.5875 20.0189 40.857 19.7713 41.1046C19.5236 41.3522 19.2542 41.5733 18.963 41.7678C18.6719 41.9624 18.3645 42.1267 18.041 42.2607C17.7174 42.3947 17.3839 42.4959 17.0405 42.5642C16.697 42.6325 16.3502 42.6667 16 42.6667L5.33333 42.6667C4.98315 42.6667 4.63632 42.6325 4.29285 42.5642C3.94939 42.4959 3.61589 42.3947 3.29237 42.2607C2.96882 42.1267 2.66146 41.9624 2.37029 41.7678C2.07913 41.5733 1.80972 41.3522 1.56208 41.1046C1.31447 40.857 1.09339 40.5875 0.898827 40.2964C0.704267 40.0052 0.539984 39.6979 0.405973 39.3743C0.271965 39.0508 0.170791 38.7173 0.102454 38.3738C0.0341517 38.0303 0 37.6835 0 37.3333ZM26.0213 56.192C26.2691 55.9445 26.4903 55.6752 26.685 55.384C26.8797 55.0928 27.0442 54.7856 27.1783 54.4619C27.3124 54.1381 27.4138 53.8048 27.4822 53.4613C27.5507 53.1179 27.585 52.771 27.5851 52.4208C27.5852 52.0702 27.5511 51.7232 27.4829 51.3797C27.4147 51.0363 27.3137 50.7028 27.1797 50.3792C27.0458 50.0553 26.8816 49.7477 26.6871 49.4565C26.4926 49.1653 26.2716 48.8958 26.024 48.648C25.7764 48.4002 25.507 48.179 25.2159 47.9845C24.9247 47.7897 24.6174 47.6252 24.2938 47.4912C23.9702 47.3568 23.6367 47.2555 23.2932 47.1872C22.9497 47.1186 22.6028 47.0843 22.2525 47.0843C21.9023 47.0843 21.5554 47.1182 21.2118 47.1861C20.8683 47.2544 20.5347 47.3556 20.211 47.4896C19.8874 47.6236 19.5799 47.7879 19.2886 47.9824C18.9973 48.1769 18.7277 48.3979 18.48 48.6453L10.9333 56.1973C10.6858 56.4453 10.4647 56.7147 10.2702 57.0059C10.0757 57.2971 9.91152 57.6048 9.7776 57.9285C9.64368 58.2523 9.54261 58.5856 9.4744 58.9291C9.40619 59.2725 9.37211 59.6197 9.37227 59.9701C9.37237 60.3205 9.40667 60.6672 9.47509 61.0107C9.54357 61.3541 9.64491 61.6875 9.77904 62.0112C9.91317 62.3349 10.0776 62.6421 10.2723 62.9333C10.467 63.2245 10.6883 63.4939 10.936 63.7413C11.1837 63.9888 11.4533 64.2096 11.7446 64.4043C12.0359 64.5989 12.3434 64.7632 12.667 64.8971C12.9907 65.0309 13.3243 65.1323 13.6678 65.2005C14.0114 65.2683 14.3583 65.3024 14.7085 65.3024C15.0588 65.3024 15.4057 65.2683 15.7492 65.1995C16.0927 65.1312 16.4262 65.0299 16.7498 64.8955C17.0734 64.7616 17.3807 64.5968 17.6719 64.4021C17.963 64.2075 18.2324 63.9867 18.48 63.7387L26.0213 56.192Z"></path></svg>