<?xml version="1.0" encoding="UTF-8"?>
<!DOCTYPE svg PUBLIC "-//W3C//DTD SVG 1.1//EN" "http://www.w3.org/Graphics/SVG/1.1/DTD/svg11.dtd">
<svg width="37mm" height="39mm" viewBox="0 0 3700 3900" version="1.1" xmlns="http://www.w3.org/2000/svg" xmlns:xlink="http://www.w3.org/1999/xlink" stroke-width="28.222" stroke-linejoin="round" xml:space="preserve">
 <path fill="none" stroke="#855cd6" stroke-width="353" stroke-linejoin="round" d="M 2784,1481 C 2784,1709 2724,1934 2609,2132 2495,2330 2330,2495 2132,2609 1934,2724 1709,2784 1481,2784 1252,2784 1027,2724 829,2609 631,2495 466,2330 352,2132 237,1934 177,1709 177,1481 177,1252 237,1027 352,829 466,631 631,466 829,352 1027,237 1252,177 1480,177 1709,177 1934,237 2132,352 2330,466 2495,631 2609,829 2724,1027 2784,1252 2784,1480 L 2784,1481 Z "/>
 <path fill="#855cd6" stroke="none" d="M 2199,2391 L 2200,2391 C 2173,2417 2154,2450 2145,2486 2135,2522 2135,2560 2145,2596 2154,2632 2173,2665 2200,2692 L 3320,3812 3320,3812 C 3347,3839 3380,3858 3416,3867 3452,3877 3490,3877 3526,3867 3562,3858 3595,3839 3621,3812 L 3621,3813 3621,3812 C 3647,3786 3666,3753 3676,3717 3686,3681 3686,3643 3676,3607 3666,3571 3647,3538 3621,3512 L 2500,2391 2500,2391 2500,2391 C 2474,2365 2441,2346 2405,2336 2369,2326 2331,2326 2295,2336 2259,2346 2226,2365 2200,2391 L 2199,2391 Z "/>
</svg>