<svg width="310" height="310" xmlns="http://www.w3.org/2000/svg" xmlns:xlink="http://www.w3.org/1999/xlink" xml:space="preserve" overflow="hidden"><g transform="translate(-1984 -1439)"><path d="M2102 1568 2208 1568 2206.38 1584C2197.96 1625.09 2161.55 1656 2117.91 1656L2102 1654.4Z" fill="#855CD6" fill-rule="evenodd"/><path d="M2104.5 1465C2154.48 1465 2195 1505.43 2195 1555.3L2194.78 1557.48 2088.55 1557.48 2088.55 1644 2086.26 1643.77C2045.02 1635.35 2014 1598.94 2014 1555.3 2014 1505.43 2054.52 1465 2104.5 1465Z" fill="#855CD6" fill-rule="evenodd" fill-opacity="0.4"/><path d="M2215.74 1577 2255 1577 2255 1722 2110 1722 2110 1663.32 2125.87 1664.92C2169.41 1664.92 2205.73 1634.04 2214.13 1592.99L2215.74 1577Z" fill="#855CD6" fill-rule="evenodd" fill-opacity="0.4"/></g></svg>