<svg xmlns="http://www.w3.org/2000/svg" xmlns:xlink="http://www.w3.org/1999/xlink" width="202"
    height="202" viewBox="0 0 202 202" fill="none">
    <path fill="rgba(85, 85, 85, 1)"
        d="M171.547 7.97796M171.547 7.97796Q182.812 14.4351 190.46 24.9523Q198.238 35.648 200.823 48.5732L188.076 51.1234Q183.853 30.0159 165.082 19.2566L171.547 7.97796ZM202 112.802L202 141.5Q202 151.349 198.916 160.616L186.581 156.511Q189 149.243 189 141.5L189 112.802L202 112.802ZM146.479 201.798M146.479 201.798Q143.999 202 141.5 202L99.8969 202L99.8969 189L141.5 189Q143.47 189 145.422 188.841L146.479 201.798ZM34.8344 196.3M34.8344 196.3Q23.048 190.772 14.5471 180.854Q5.97474 170.852 2.35064 158.251L14.8442 154.658Q20.7973 175.357 40.3551 184.531L34.8344 196.3ZM0 93.5954L0 60.5Q0 53.1854 1.71653 46.1379L14.3473 49.2143Q13 54.7457 13 60.5L13 93.5954L0 93.5954ZM50.647 0.799327M50.647 0.799327Q55.523 0 60.5 0L106.5 0L106.5 13L60.5 13Q56.5815 13 52.75 13.6281L50.647 0.799327Z"></path>
    <rect x="36.5" y="36.5" width="129" height="129" rx="50" fill="#855CD6"></rect>
</svg>