<svg xmlns="http://www.w3.org/2000/svg" xmlns:xlink="http://www.w3.org/1999/xlink" width="600" height="300" viewBox="0 0 600 300" fill="none"><path d="M0 0L600 0L600 300L0 300L0 0Z"   fill="#0099FF" ></path><path     fill="#FFFFFF"  d="M115.606 232C89.9148 232 78.2369 222.1 78.2369 222.1C66.5591 212.2 66.5591 190.42 66.5591 190.42L66.5591 181.6C66.5591 174.76 64.6727 171.34 64.6727 171.34C62.7862 167.92 58.2948 166.66 58.2948 166.66C53.8033 165.4 45 165.4 45 165.4L45 136.6C53.8033 136.6 58.2948 135.34 58.2948 135.34C62.7862 134.08 64.6727 130.66 64.6727 130.66C66.5591 127.24 66.5591 120.4 66.5591 120.4L66.5591 111.58C66.5591 89.8 78.2369 79.9 78.2369 79.9C89.9148 70 115.606 70 115.606 70L115.606 97C105.725 97 101.233 100.6 101.233 100.6C96.7418 104.2 96.7418 111.94 96.7418 111.94L96.7418 122.2C96.7418 131.2 95.1249 136.42 95.1249 136.42C93.5079 141.64 90.6334 144.52 90.6334 144.52C87.7589 147.4 82.1894 150.46 82.1894 150.46L82.1894 151.54C87.5792 154.78 90.5436 157.66 90.5436 157.66C93.5079 160.54 95.1249 165.76 95.1249 165.76C96.7418 170.98 96.7418 179.8 96.7418 179.8L96.7418 190.06C96.7418 197.8 101.233 201.4 101.233 201.4C105.725 205 115.606 205 115.606 205L115.606 232Z"></path><path     fill="#FFFFFF"  d=""></path><path     fill="#FFFFFF"  d="M164.394 205C174.275 205 178.767 201.4 178.767 201.4C183.258 197.8 183.258 190.06 183.258 190.06L183.258 179.8C183.258 170.98 184.875 165.76 184.875 165.76C186.492 160.54 189.456 157.66 189.456 157.66C192.421 154.78 197.811 151.54 197.811 151.54L197.811 150.46C192.241 147.4 189.367 144.52 189.367 144.52C186.492 141.64 184.875 136.42 184.875 136.42C183.258 131.2 183.258 122.2 183.258 122.2L183.258 111.94C183.258 104.2 178.767 100.6 178.767 100.6C174.275 97 164.394 97 164.394 97L164.394 70C190.085 70 201.763 79.9 201.763 79.9C213.441 89.8 213.441 111.58 213.441 111.58L213.441 120.4C213.441 127.24 215.327 130.66 215.327 130.66C217.214 134.08 221.705 135.34 221.705 135.34C226.197 136.6 235 136.6 235 136.6L235 165.4C226.197 165.4 221.705 166.66 221.705 166.66C217.214 167.92 215.327 171.34 215.327 171.34C213.441 174.76 213.441 181.6 213.441 181.6L213.441 190.42C213.441 212.2 201.763 222.1 201.763 222.1C190.085 232 164.394 232 164.394 232L164.394 205Z"></path><path d="M0 183.247L201.552 183.247L201.552 184.087L137.176 250L217.121 250L316 149.66L217.121 51L137.176 51L201.552 115.234L201.552 116.074L0 116.074L0 183.247Z" fill-rule="evenodd"  fill="#FFFFFF" fill-opacity="0.4"></path><path d="M382 144.25C382 103.244 415.115 70 455.964 70C496.813 70 529.928 103.244 529.928 144.25C529.928 185.255 496.813 218.499 455.964 218.499C415.115 218.499 382 185.255 382 144.25Z" fill-rule="evenodd"  fill="url(#linear_fill_5_3)" ></path><path d="M455.964 69.7708C414.988 69.7708 381.771 103.274 381.771 144.25C381.771 185.383 414.831 218.728 455.964 218.728C496.94 218.728 530.157 185.225 530.157 144.25C530.157 103.116 497.098 69.7708 455.964 69.7708ZM455.964 218.27C415.084 218.27 382.229 185.13 382.229 144.25C382.229 103.527 415.241 70.2291 455.964 70.2291C496.844 70.2291 529.699 103.369 529.699 144.25C529.699 184.972 496.687 218.27 455.964 218.27Z" fill-rule="evenodd"  fill="#FFFFFF" fill-opacity="0.5"></path><path d="M449 169.22C449 138.722 473.684 114 504.134 114C534.583 114 559.268 138.722 559.268 169.22C559.268 199.718 534.583 224.44 504.134 224.44C473.684 224.44 449 199.718 449 169.22Z" fill-rule="evenodd"  fill="url(#linear_fill_5_4)" ></path><path d="M504.134 113.771C473.558 113.771 448.771 138.644 448.771 169.22C448.771 199.844 473.51 224.669 504.134 224.669C534.71 224.669 559.497 199.796 559.497 169.22C559.497 138.596 534.758 113.771 504.134 113.771ZM504.134 224.211C473.763 224.211 449.229 199.59 449.229 169.22C449.229 138.897 473.811 114.229 504.134 114.229C534.504 114.229 559.038 138.849 559.038 169.22C559.038 199.543 534.457 224.211 504.134 224.211Z" fill-rule="evenodd"  fill="#FFFFFF" fill-opacity="0.5"></path><path d="M429.418 172.148C449.314 173.942 463.991 191.552 462.198 211.478C460.406 231.405 442.825 246.106 422.928 244.311C403.032 242.514 388.356 224.904 390.148 204.978C391.94 185.051 409.522 170.354 429.418 172.148Z" fill-rule="evenodd"  fill="url(#linear_fill_5_5)" ></path><path d="M436.678 173.317C434.323 172.608 431.91 172.143 429.439 171.92C409.418 170.115 391.72 184.936 389.92 204.957C389.697 207.432 389.723 209.893 389.998 212.341C390.266 214.726 390.766 217.062 391.498 219.347C392.216 221.591 393.146 223.748 394.286 225.817C395.415 227.866 396.729 229.79 398.229 231.59C399.729 233.389 401.384 235.028 403.196 236.508C405.024 238.001 406.977 239.302 409.053 240.411C411.167 241.541 413.372 242.451 415.668 243.142C418.023 243.85 420.436 244.316 422.908 244.54C442.929 246.345 460.626 231.52 462.427 211.499C462.649 209.024 462.623 206.563 462.348 204.115C462.08 201.73 461.581 199.395 460.849 197.109C460.13 194.865 459.201 192.709 458.061 190.64C456.932 188.591 455.617 186.666 454.117 184.867C452.618 183.068 450.962 181.428 449.151 179.949C447.322 178.456 445.37 177.155 443.294 176.046C441.179 174.917 438.974 174.007 436.678 173.317ZM390.376 204.998C392.154 185.229 409.629 170.594 429.398 172.377C431.838 172.597 434.221 173.056 436.547 173.756C438.813 174.437 440.99 175.335 443.078 176.451C445.128 177.545 447.055 178.83 448.861 180.304C450.65 181.765 452.284 183.384 453.765 185.16C455.246 186.937 456.544 188.838 457.66 190.861C458.785 192.904 459.703 195.033 460.412 197.249C461.135 199.506 461.628 201.811 461.893 204.166C462.164 206.584 462.19 209.014 461.97 211.458C460.192 231.227 442.718 245.866 422.949 244.083C420.509 243.863 418.126 243.403 415.8 242.703C413.533 242.021 411.356 241.122 409.269 240.007C407.219 238.912 405.291 237.627 403.486 236.153C401.697 234.692 400.062 233.073 398.581 231.296C397.1 229.519 395.802 227.619 394.687 225.595C393.561 223.552 392.644 221.423 391.934 219.208C391.212 216.951 390.718 214.645 390.454 212.29C390.182 209.873 390.157 207.442 390.376 204.998Z" fill-rule="evenodd"  fill="#FFFFFF" fill-opacity="0.5"></path><path d="M382 144.25C382 103.244 415.115 70 455.964 70C496.813 70 529.928 103.244 529.928 144.25C529.928 185.255 496.813 218.499 455.964 218.499C415.115 218.499 382 185.255 382 144.25Z" fill-rule="evenodd"  fill="url(#linear_fill_5_6)" ></path><path d="M455.964 69.7708C414.988 69.7708 381.771 103.274 381.771 144.25C381.771 185.383 414.831 218.728 455.964 218.728C496.94 218.728 530.157 185.225 530.157 144.25C530.157 103.116 497.098 69.7708 455.964 69.7708ZM455.964 218.27C415.084 218.27 382.229 185.13 382.229 144.25C382.229 103.527 415.241 70.2291 455.964 70.2291C496.844 70.2291 529.699 103.369 529.699 144.25C529.699 184.972 496.687 218.27 455.964 218.27Z" fill-rule="evenodd"  fill="#FFFFFF" fill-opacity="0.5"></path><path d="M449 169.22C449 138.722 473.684 114 504.134 114C534.583 114 559.268 138.722 559.268 169.22C559.268 199.718 534.583 224.44 504.134 224.44C473.684 224.44 449 199.718 449 169.22Z" fill-rule="evenodd"  fill="url(#linear_fill_5_7)" ></path><path d="M504.134 113.771C473.558 113.771 448.771 138.644 448.771 169.22C448.771 199.844 473.51 224.669 504.134 224.669C534.71 224.669 559.497 199.796 559.497 169.22C559.497 138.596 534.758 113.771 504.134 113.771ZM504.134 224.211C473.763 224.211 449.229 199.59 449.229 169.22C449.229 138.897 473.811 114.229 504.134 114.229C534.504 114.229 559.038 138.849 559.038 169.22C559.038 199.543 534.457 224.211 504.134 224.211Z" fill-rule="evenodd"  fill="#FFFFFF" fill-opacity="0.5"></path><path d="M429.418 172.148C449.314 173.942 463.991 191.552 462.198 211.478C460.406 231.405 442.825 246.106 422.928 244.311C403.032 242.514 388.356 224.904 390.148 204.978C391.94 185.051 409.522 170.354 429.418 172.148Z" fill-rule="evenodd"  fill="url(#linear_fill_5_8)" ></path><path d="M436.678 173.317C434.323 172.608 431.91 172.143 429.439 171.92C409.418 170.115 391.72 184.936 389.92 204.957C389.697 207.432 389.723 209.893 389.998 212.341C390.266 214.726 390.766 217.062 391.498 219.347C392.216 221.591 393.146 223.748 394.286 225.817C395.415 227.866 396.729 229.79 398.229 231.59C399.729 233.389 401.384 235.028 403.196 236.508C405.024 238.001 406.977 239.302 409.053 240.411C411.167 241.541 413.372 242.451 415.668 243.142C418.023 243.85 420.436 244.316 422.908 244.54C442.929 246.345 460.626 231.52 462.427 211.499C462.649 209.024 462.623 206.563 462.348 204.115C462.08 201.73 461.581 199.395 460.849 197.109C460.13 194.865 459.201 192.709 458.061 190.64C456.932 188.591 455.617 186.666 454.117 184.867C452.618 183.068 450.962 181.428 449.151 179.949C447.322 178.456 445.37 177.155 443.294 176.046C441.179 174.917 438.974 174.007 436.678 173.317ZM390.376 204.998C392.154 185.229 409.629 170.594 429.398 172.377C431.838 172.597 434.221 173.056 436.547 173.756C438.813 174.437 440.99 175.335 443.078 176.451C445.128 177.545 447.055 178.83 448.861 180.304C450.65 181.765 452.284 183.384 453.765 185.16C455.246 186.937 456.544 188.838 457.66 190.861C458.785 192.904 459.703 195.033 460.412 197.249C461.135 199.506 461.628 201.811 461.893 204.166C462.164 206.584 462.19 209.014 461.97 211.458C460.192 231.227 442.718 245.866 422.949 244.083C420.509 243.863 418.126 243.403 415.8 242.703C413.533 242.021 411.356 241.122 409.269 240.007C407.219 238.912 405.291 237.627 403.486 236.153C401.697 234.692 400.062 233.073 398.581 231.296C397.1 229.519 395.802 227.619 394.687 225.595C393.561 223.552 392.644 221.423 391.934 219.208C391.212 216.951 390.718 214.645 390.454 212.29C390.182 209.873 390.157 207.442 390.376 204.998Z" fill-rule="evenodd"  fill="#FFFFFF" fill-opacity="0.5"></path><defs><radialGradient id="linear_fill_5_3" cx="0" cy="0" r="1" gradientTransform="translate(455.9639892578125 144.24957275390625) rotate(90) scale(104.720947265625, 104.720947265625)" gradientUnits="userSpaceOnUse"><stop offset="0" stop-color="#FFFFFF" stop-opacity="0.4" /><stop offset="0.04" stop-color="#FFFFFF" stop-opacity="0.4" /><stop offset="0.08" stop-color="#FFFFFF" stop-opacity="0.41" /><stop offset="0.12" stop-color="#FFFFFF" stop-opacity="0.41" /><stop offset="0.16" stop-color="#FFFFFF" stop-opacity="0.42" /><stop offset="0.2" stop-color="#FFFFFF" stop-opacity="0.42" /><stop offset="0.24" stop-color="#FFFFFF" stop-opacity="0.42" /><stop offset="0.28" stop-color="#FFFFFF" stop-opacity="0.43" /><stop offset="0.32" stop-color="#FFFFFF" stop-opacity="0.43" /><stop offset="0.36" stop-color="#FFFFFF" stop-opacity="0.44" /><stop offset="0.4" stop-color="#FFFFFF" stop-opacity="0.44" /><stop offset="0.44" stop-color="#FFFFFF" stop-opacity="0.44" /><stop offset="0.48" stop-color="#FFFFFF" stop-opacity="0.45" /><stop offset="0.52" stop-color="#FFFFFF" stop-opacity="0.45" /><stop offset="0.56" stop-color="#FFFFFF" stop-opacity="0.46" /><stop offset="0.6" stop-color="#FFFFFF" stop-opacity="0.46" /><stop offset="0.64" stop-color="#FFFFFF" stop-opacity="0.47" /><stop offset="0.68" stop-color="#FFFFFF" stop-opacity="0.47" /><stop offset="0.72" stop-color="#FFFFFF" stop-opacity="0.47" /><stop offset="0.76" stop-color="#FFFFFF" stop-opacity="0.48" /><stop offset="0.8" stop-color="#FFFFFF" stop-opacity="0.48" /><stop offset="0.84" stop-color="#FFFFFF" stop-opacity="0.49" /><stop offset="0.88" stop-color="#FFFFFF" stop-opacity="0.49" /><stop offset="0.92" stop-color="#FFFFFF" stop-opacity="0.49" /><stop offset="0.96" stop-color="#FFFFFF" stop-opacity="0.5" /><stop offset="1" stop-color="#FFFFFF" stop-opacity="0.5" /></radialGradient><radialGradient id="linear_fill_5_4" cx="0" cy="0" r="1" gradientTransform="translate(504.1337585449219 169.21990966796875) rotate(90) scale(77.97091674804688, 77.97091674804688)" gradientUnits="userSpaceOnUse"><stop offset="0" stop-color="#FFFFFF" stop-opacity="0.4" /><stop offset="0.04" stop-color="#FFFFFF" stop-opacity="0.4" /><stop offset="0.08" stop-color="#FFFFFF" stop-opacity="0.41" /><stop offset="0.12" stop-color="#FFFFFF" stop-opacity="0.41" /><stop offset="0.16" stop-color="#FFFFFF" stop-opacity="0.42" /><stop offset="0.2" stop-color="#FFFFFF" stop-opacity="0.42" /><stop offset="0.24" stop-color="#FFFFFF" stop-opacity="0.42" /><stop offset="0.28" stop-color="#FFFFFF" stop-opacity="0.43" /><stop offset="0.32" stop-color="#FFFFFF" stop-opacity="0.43" /><stop offset="0.36" stop-color="#FFFFFF" stop-opacity="0.44" /><stop offset="0.4" stop-color="#FFFFFF" stop-opacity="0.44" /><stop offset="0.44" stop-color="#FFFFFF" stop-opacity="0.44" /><stop offset="0.48" stop-color="#FFFFFF" stop-opacity="0.45" /><stop offset="0.52" stop-color="#FFFFFF" stop-opacity="0.45" /><stop offset="0.56" stop-color="#FFFFFF" stop-opacity="0.46" /><stop offset="0.6" stop-color="#FFFFFF" stop-opacity="0.46" /><stop offset="0.64" stop-color="#FFFFFF" stop-opacity="0.47" /><stop offset="0.68" stop-color="#FFFFFF" stop-opacity="0.47" /><stop offset="0.72" stop-color="#FFFFFF" stop-opacity="0.47" /><stop offset="0.76" stop-color="#FFFFFF" stop-opacity="0.48" /><stop offset="0.8" stop-color="#FFFFFF" stop-opacity="0.48" /><stop offset="0.84" stop-color="#FFFFFF" stop-opacity="0.49" /><stop offset="0.88" stop-color="#FFFFFF" stop-opacity="0.49" /><stop offset="0.92" stop-color="#FFFFFF" stop-opacity="0.49" /><stop offset="0.96" stop-color="#FFFFFF" stop-opacity="0.5" /><stop offset="1" stop-color="#FFFFFF" stop-opacity="0.5" /></radialGradient><radialGradient id="linear_fill_5_5" cx="0" cy="0" r="1" gradientTransform="translate(426.173095703125 208.22830200195312) rotate(-174.86101786941606) scale(51.23277783130456, 51.23277783130457)" gradientUnits="userSpaceOnUse"><stop offset="0" stop-color="#FFFFFF" stop-opacity="0.22" /><stop offset="0.04" stop-color="#FFFFFF" stop-opacity="0.22" /><stop offset="0.08" stop-color="#FFFFFF" stop-opacity="0.23" /><stop offset="0.12" stop-color="#FFFFFF" stop-opacity="0.23" /><stop offset="0.16" stop-color="#FFFFFF" stop-opacity="0.24" /><stop offset="0.2" stop-color="#FFFFFF" stop-opacity="0.24" /><stop offset="0.24" stop-color="#FFFFFF" stop-opacity="0.24" /><stop offset="0.28" stop-color="#FFFFFF" stop-opacity="0.25" /><stop offset="0.32" stop-color="#FFFFFF" stop-opacity="0.25" /><stop offset="0.36" stop-color="#FFFFFF" stop-opacity="0.26" /><stop offset="0.4" stop-color="#FFFFFF" stop-opacity="0.26" /><stop offset="0.44" stop-color="#FFFFFF" stop-opacity="0.26" /><stop offset="0.48" stop-color="#FFFFFF" stop-opacity="0.27" /><stop offset="0.52" stop-color="#FFFFFF" stop-opacity="0.27" /><stop offset="0.56" stop-color="#FFFFFF" stop-opacity="0.28" /><stop offset="0.6" stop-color="#FFFFFF" stop-opacity="0.28" /><stop offset="0.64" stop-color="#FFFFFF" stop-opacity="0.28" /><stop offset="0.68" stop-color="#FFFFFF" stop-opacity="0.29" /><stop offset="0.72" stop-color="#FFFFFF" stop-opacity="0.29" /><stop offset="0.76" stop-color="#FFFFFF" stop-opacity="0.3" /><stop offset="0.8" stop-color="#FFFFFF" stop-opacity="0.3" /><stop offset="0.84" stop-color="#FFFFFF" stop-opacity="0.31" /><stop offset="0.88" stop-color="#FFFFFF" stop-opacity="0.31" /><stop offset="0.92" stop-color="#FFFFFF" stop-opacity="0.31" /><stop offset="0.96" stop-color="#FFFFFF" stop-opacity="0.32" /><stop offset="1" stop-color="#FFFFFF" stop-opacity="0.32" /></radialGradient><radialGradient id="linear_fill_5_6" cx="0" cy="0" r="1" gradientTransform="translate(455.9639892578125 144.24957275390625) rotate(90) scale(104.720947265625, 104.720947265625)" gradientUnits="userSpaceOnUse"><stop offset="0" stop-color="#FFFFFF" stop-opacity="0.4" /><stop offset="0.04" stop-color="#FFFFFF" stop-opacity="0.4" /><stop offset="0.08" stop-color="#FFFFFF" stop-opacity="0.41" /><stop offset="0.12" stop-color="#FFFFFF" stop-opacity="0.41" /><stop offset="0.16" stop-color="#FFFFFF" stop-opacity="0.42" /><stop offset="0.2" stop-color="#FFFFFF" stop-opacity="0.42" /><stop offset="0.24" stop-color="#FFFFFF" stop-opacity="0.42" /><stop offset="0.28" stop-color="#FFFFFF" stop-opacity="0.43" /><stop offset="0.32" stop-color="#FFFFFF" stop-opacity="0.43" /><stop offset="0.36" stop-color="#FFFFFF" stop-opacity="0.44" /><stop offset="0.4" stop-color="#FFFFFF" stop-opacity="0.44" /><stop offset="0.44" stop-color="#FFFFFF" stop-opacity="0.44" /><stop offset="0.48" stop-color="#FFFFFF" stop-opacity="0.45" /><stop offset="0.52" stop-color="#FFFFFF" stop-opacity="0.45" /><stop offset="0.56" stop-color="#FFFFFF" stop-opacity="0.46" /><stop offset="0.6" stop-color="#FFFFFF" stop-opacity="0.46" /><stop offset="0.64" stop-color="#FFFFFF" stop-opacity="0.47" /><stop offset="0.68" stop-color="#FFFFFF" stop-opacity="0.47" /><stop offset="0.72" stop-color="#FFFFFF" stop-opacity="0.47" /><stop offset="0.76" stop-color="#FFFFFF" stop-opacity="0.48" /><stop offset="0.8" stop-color="#FFFFFF" stop-opacity="0.48" /><stop offset="0.84" stop-color="#FFFFFF" stop-opacity="0.49" /><stop offset="0.88" stop-color="#FFFFFF" stop-opacity="0.49" /><stop offset="0.92" stop-color="#FFFFFF" stop-opacity="0.49" /><stop offset="0.96" stop-color="#FFFFFF" stop-opacity="0.5" /><stop offset="1" stop-color="#FFFFFF" stop-opacity="0.5" /></radialGradient><radialGradient id="linear_fill_5_7" cx="0" cy="0" r="1" gradientTransform="translate(504.1337585449219 169.21990966796875) rotate(90) scale(77.97091674804688, 77.97091674804688)" gradientUnits="userSpaceOnUse"><stop offset="0" stop-color="#FFFFFF" stop-opacity="0.4" /><stop offset="0.04" stop-color="#FFFFFF" stop-opacity="0.4" /><stop offset="0.08" stop-color="#FFFFFF" stop-opacity="0.41" /><stop offset="0.12" stop-color="#FFFFFF" stop-opacity="0.41" /><stop offset="0.16" stop-color="#FFFFFF" stop-opacity="0.42" /><stop offset="0.2" stop-color="#FFFFFF" stop-opacity="0.42" /><stop offset="0.24" stop-color="#FFFFFF" stop-opacity="0.42" /><stop offset="0.28" stop-color="#FFFFFF" stop-opacity="0.43" /><stop offset="0.32" stop-color="#FFFFFF" stop-opacity="0.43" /><stop offset="0.36" stop-color="#FFFFFF" stop-opacity="0.44" /><stop offset="0.4" stop-color="#FFFFFF" stop-opacity="0.44" /><stop offset="0.44" stop-color="#FFFFFF" stop-opacity="0.44" /><stop offset="0.48" stop-color="#FFFFFF" stop-opacity="0.45" /><stop offset="0.52" stop-color="#FFFFFF" stop-opacity="0.45" /><stop offset="0.56" stop-color="#FFFFFF" stop-opacity="0.46" /><stop offset="0.6" stop-color="#FFFFFF" stop-opacity="0.46" /><stop offset="0.64" stop-color="#FFFFFF" stop-opacity="0.47" /><stop offset="0.68" stop-color="#FFFFFF" stop-opacity="0.47" /><stop offset="0.72" stop-color="#FFFFFF" stop-opacity="0.47" /><stop offset="0.76" stop-color="#FFFFFF" stop-opacity="0.48" /><stop offset="0.8" stop-color="#FFFFFF" stop-opacity="0.48" /><stop offset="0.84" stop-color="#FFFFFF" stop-opacity="0.49" /><stop offset="0.88" stop-color="#FFFFFF" stop-opacity="0.49" /><stop offset="0.92" stop-color="#FFFFFF" stop-opacity="0.49" /><stop offset="0.96" stop-color="#FFFFFF" stop-opacity="0.5" /><stop offset="1" stop-color="#FFFFFF" stop-opacity="0.5" /></radialGradient><radialGradient id="linear_fill_5_8" cx="0" cy="0" r="1" gradientTransform="translate(426.173095703125 208.22830200195312) rotate(-174.86101786941606) scale(51.23277783130456, 51.23277783130457)" gradientUnits="userSpaceOnUse"><stop offset="0" stop-color="#FFFFFF" stop-opacity="0.22" /><stop offset="0.04" stop-color="#FFFFFF" stop-opacity="0.22" /><stop offset="0.08" stop-color="#FFFFFF" stop-opacity="0.23" /><stop offset="0.12" stop-color="#FFFFFF" stop-opacity="0.23" /><stop offset="0.16" stop-color="#FFFFFF" stop-opacity="0.24" /><stop offset="0.2" stop-color="#FFFFFF" stop-opacity="0.24" /><stop offset="0.24" stop-color="#FFFFFF" stop-opacity="0.24" /><stop offset="0.28" stop-color="#FFFFFF" stop-opacity="0.25" /><stop offset="0.32" stop-color="#FFFFFF" stop-opacity="0.25" /><stop offset="0.36" stop-color="#FFFFFF" stop-opacity="0.26" /><stop offset="0.4" stop-color="#FFFFFF" stop-opacity="0.26" /><stop offset="0.44" stop-color="#FFFFFF" stop-opacity="0.26" /><stop offset="0.48" stop-color="#FFFFFF" stop-opacity="0.27" /><stop offset="0.52" stop-color="#FFFFFF" stop-opacity="0.27" /><stop offset="0.56" stop-color="#FFFFFF" stop-opacity="0.28" /><stop offset="0.6" stop-color="#FFFFFF" stop-opacity="0.28" /><stop offset="0.64" stop-color="#FFFFFF" stop-opacity="0.28" /><stop offset="0.68" stop-color="#FFFFFF" stop-opacity="0.29" /><stop offset="0.72" stop-color="#FFFFFF" stop-opacity="0.29" /><stop offset="0.76" stop-color="#FFFFFF" stop-opacity="0.3" /><stop offset="0.8" stop-color="#FFFFFF" stop-opacity="0.3" /><stop offset="0.84" stop-color="#FFFFFF" stop-opacity="0.31" /><stop offset="0.88" stop-color="#FFFFFF" stop-opacity="0.31" /><stop offset="0.92" stop-color="#FFFFFF" stop-opacity="0.31" /><stop offset="0.96" stop-color="#FFFFFF" stop-opacity="0.32" /><stop offset="1" stop-color="#FFFFFF" stop-opacity="0.32" /></radialGradient></defs></svg>