<svg width="19" height="19" xmlns="http://www.w3.org/2000/svg" xmlns:xlink="http://www.w3.org/1999/xlink" xml:space="preserve" overflow="hidden"><g transform="translate(-2046 -1507)"><path d="M2048.55 1510C2047.14 1510 2046 1511.07 2046 1512.4L2046 1523.6C2046 1524.93 2047.14 1526 2048.55 1526L2060.45 1526C2061.86 1526 2063 1524.93 2063 1523.6L2063 1512.4C2063 1511.07 2061.86 1510 2060.45 1510L2048.55 1510ZM2048.55 1511.6 2060.45 1511.6C2060.92 1511.6 2061.3 1511.96 2061.3 1512.4L2061.3 1523.6C2061.3 1524.04 2060.92 1524.4 2060.45 1524.4L2048.55 1524.4C2048.08 1524.4 2047.7 1524.04 2047.7 1523.6L2047.7 1512.4C2047.7 1511.96 2048.08 1511.6 2048.55 1511.6Z" fill="#FFFFFF" fill-rule="evenodd"/><path d="M2051.4 1507 2062.6 1507C2063.93 1507 2065 1508.11 2065 1509.47L2065 1521 2063.4 1521 2063.4 1509.47C2063.4 1509.02 2063.04 1508.65 2062.6 1508.65L2051.4 1508.65C2051.06 1508.65 2050.78 1508.85 2050.66 1509.15L2050.6 1509.43 2049 1509.43 2049.04 1508.97C2049.27 1507.85 2050.24 1507 2051.4 1507Z" fill="#FFFFFF" fill-rule="evenodd"/></g></svg>