<?xml version="1.0" encoding="UTF-8"?>
<!DOCTYPE svg PUBLIC "-//W3C//DTD SVG 1.1//EN" "http://www.w3.org/Graphics/SVG/1.1/DTD/svg11.dtd">
<svg width="6mm" height="6mm" viewBox="0 0 600 600" version="1.1" xmlns="http://www.w3.org/2000/svg" xmlns:xlink="http://www.w3.org/1999/xlink" stroke-width="28.222" stroke-linejoin="round" xml:space="preserve">
 <path fill="#855cd6" stroke="none" d="M 484,464 L 484,465 484,467 484,468 483,470 482,471 481,473 480,474 479,475 478,476 477,477 476,478 474,478 473,479 471,479 470,479 468,480 299,480 297,480 295,480 293,480 293,480 292,480 291,481 290,481 290,482 289,482 288,483 288,483 287,484 287,484 265,506 263,508 262,509 261,509 259,510 259,510 258,511 257,511 256,511 255,511 254,511 254,511 253,511 171,511 170,511 169,511 168,511 167,511 166,511 166,511 165,510 164,510 163,509 161,509 160,508 159,506 137,484 136,484 136,483 135,483 134,482 134,482 133,481 132,481 132,480 131,480 130,480 128,480 127,480 125,480 84,480 82,479 81,479 79,479 78,478 76,478 75,477 74,476 72,475 71,474 71,473 70,471 69,470 69,468 68,467 68,465 68,464 68,335 68,333 68,331 69,330 69,328 70,327 71,326 71,324 72,323 74,322 75,321 76,321 78,320 79,319 81,319 82,319 84,319 125,319 126,319 126,319 127,319 128,319 129,319 129,319 131,320 132,321 133,322 135,323 136,324 159,346 160,347 161,348 163,349 164,349 165,350 166,350 166,350 167,350 168,350 169,351 170,351 171,351 253,351 254,351 254,351 255,350 256,350 257,350 258,350 259,350 259,349 261,349 262,348 263,347 265,346 288,324 289,323 290,322 291,321 293,320 294,319 295,319 296,319 296,319 297,319 298,319 299,319 468,319 470,319 471,319 473,319 474,320 476,321 477,321 478,322 479,323 480,324 481,326 482,327 483,328 484,330 484,331 484,333 484,335 484,464 Z "/>
 <path fill="#855cd6" stroke="none" d="M 344,57 L 392,57 392,299 344,299 344,57 Z "/>
 <path fill="#855cd6" stroke="none" d="M 247,152 L 489,152 489,201 247,201 247,152 Z "/>
</svg>
