<svg width="326" height="316" xmlns="http://www.w3.org/2000/svg" xmlns:xlink="http://www.w3.org/1999/xlink" xml:space="preserve" overflow="hidden"><g transform="translate(-1605 -1134)"><path d="M1719.5 1449.5 1719.5 1349.57C1719.5 1288.23 1769.23 1238.5 1830.57 1238.5L1930.5 1238.5" stroke="#575E75" stroke-width="22.9167" stroke-miterlimit="8" fill="none" fill-rule="evenodd"/><path d="M1661.48 1267.39 1666.97 1251.04 1674.1 1239.39 1681.94 1228.98 1690.73 1219.39 1700.4 1210.67 1710.88 1202.89 1722.6 1195.83 1739.36 1190.25 1745.16 1207.64 1729.36 1212.9 1731.2 1212.06 1720.73 1218.37 1721.45 1217.88 1711.68 1225.13 1712.35 1224.58 1703.34 1232.71 1703.96 1232.1 1695.76 1241.04 1696.32 1240.37 1689.01 1250.07 1689.51 1249.34 1683.15 1259.73 1684.02 1257.86 1678.86 1273.23ZM1699.02 1267.47 1660 1315 1645.39 1255.27ZM1727.34 1174.09 1787 1189 1739.28 1227.78Z" fill="#575E75"/></g></svg>