<svg xmlns="http://www.w3.org/2000/svg" xmlns:xlink="http://www.w3.org/1999/xlink"
    width="22.00799560546875" height="50.399993896484375"
    viewBox="0 0 60 50.4" fill="none">
    <path fill="#FFFFFF"
        d="M22.008 50.4C14 50.4 10.36 47.32 10.36 47.32C6.72 44.24 6.72 37.464 6.72 37.464L6.72 34.72C6.72 32.592 6.132 31.528 6.132 31.528C5.544 30.464 4.144 30.072 4.144 30.072C2.744 29.68 0 29.68 0 29.68L0 20.72C2.744 20.72 4.144 20.328 4.144 20.328C5.544 19.936 6.132 18.872 6.132 18.872C6.72 17.808 6.72 15.68 6.72 15.68L6.72 12.936C6.72 6.16 10.36 3.08 10.36 3.08C14 0 22.008 0 22.008 0L22.008 8.4C18.928 8.4 17.528 9.52 17.528 9.52C16.128 10.64 16.128 13.048 16.128 13.048L16.128 16.24C16.128 19.04 15.624 20.664 15.624 20.664C15.12 22.288 14.224 23.184 14.224 23.184C13.328 24.08 11.592 25.032 11.592 25.032L11.592 25.368C13.272 26.376 14.196 27.272 14.196 27.272C15.12 28.168 15.624 29.792 15.624 29.792C16.128 31.416 16.128 34.16 16.128 34.16L16.128 37.352C16.128 39.76 17.528 40.88 17.528 40.88C18.928 42 22.008 42 22.008 42L22.008 50.4Z"></path>
    <path fill="#FFFFFF" d=""></path>
    <path fill="#FFFFFF"
        d="M37.2153 42C40.2953 42 41.6953 40.88 41.6953 40.88C43.0953 39.76 43.0953 37.352 43.0953 37.352L43.0953 34.16C43.0953 31.416 43.5993 29.792 43.5993 29.792C44.1033 28.168 45.0273 27.272 45.0273 27.272C45.9513 26.376 47.6313 25.368 47.6313 25.368L47.6313 25.032C45.8953 24.08 44.9993 23.184 44.9993 23.184C44.1033 22.288 43.5993 20.664 43.5993 20.664C43.0953 19.04 43.0953 16.24 43.0953 16.24L43.0953 13.048C43.0953 10.64 41.6953 9.52 41.6953 9.52C40.2953 8.4 37.2153 8.4 37.2153 8.4L37.2153 0C45.2233 0 48.8633 3.08 48.8633 3.08C52.5033 6.16 52.5033 12.936 52.5033 12.936L52.5033 15.68C52.5033 17.808 53.0913 18.872 53.0913 18.872C53.6793 19.936 55.0793 20.328 55.0793 20.328C56.4793 20.72 59.2233 20.72 59.2233 20.72L59.2233 29.68C56.4793 29.68 55.0793 30.072 55.0793 30.072C53.6793 30.464 53.0913 31.528 53.0913 31.528C52.5033 32.592 52.5033 34.72 52.5033 34.72L52.5033 37.464C52.5033 44.24 48.8633 47.32 48.8633 47.32C45.2233 50.4 37.2153 50.4 37.2153 50.4L37.2153 42Z"></path>
</svg>